<svg width="447" height="548" viewBox="0 0 447 548" fill="none" xmlns="http://www.w3.org/2000/svg">
<path d="M414.816 353.373C421.724 356.459 425.546 360.722 425.546 364.837V428.919C425.546 431.859 423.635 434.651 419.813 437.003L244.91 540.769C232.858 547.971 212.869 547.971 200.67 540.769L25.7673 437.003C21.7989 434.798 20.0352 431.859 20.0352 428.919V364.984C20.1821 360.869 23.8566 356.606 30.7645 353.52" stroke="#E0ECF5" stroke-width="2" stroke-miterlimit="10"/>
<path d="M79.7168 331.588L30.7646 353.372C18.8594 358.81 16.5078 367.482 25.7674 373.067L200.67 476.98C212.869 484.182 232.858 484.182 245.058 476.833L419.961 373.067C429.22 367.482 426.868 358.663 414.963 353.372L366.011 331.588" stroke="#E0ECF5" stroke-width="2" stroke-miterlimit="10"/>
<path d="M222.57 445.968C226.385 445.968 229.477 444.388 229.477 442.44C229.477 440.492 226.385 438.913 222.57 438.913C218.754 438.913 215.662 440.492 215.662 442.44C215.662 444.388 218.754 445.968 222.57 445.968Z" fill="#E0ECF5"/>
<path d="M184.356 423.481C188.008 423.481 190.97 421.967 190.97 420.1C190.97 418.233 188.008 416.72 184.356 416.72C180.703 416.72 177.742 418.233 177.742 420.1C177.742 421.967 180.703 423.481 184.356 423.481Z" fill="#E0ECF5"/>
<path d="M147.758 402.61C151.248 402.61 154.078 401.163 154.078 399.377C154.078 397.591 151.248 396.143 147.758 396.143C144.267 396.143 141.438 397.591 141.438 399.377C141.438 401.163 144.267 402.61 147.758 402.61Z" fill="#E0ECF5"/>
<path d="M113.807 383.208C117.135 383.208 119.833 381.826 119.833 380.122C119.833 378.417 117.135 377.035 113.807 377.035C110.479 377.035 107.781 378.417 107.781 380.122C107.781 381.826 110.479 383.208 113.807 383.208Z" fill="#E0ECF5"/>
<path d="M81.7648 364.542C84.9306 364.542 87.4969 363.226 87.4969 361.602C87.4969 359.979 84.9306 358.663 81.7648 358.663C78.5991 358.663 76.0327 359.979 76.0327 361.602C76.0327 363.226 78.5991 364.542 81.7648 364.542Z" fill="#E0ECF5"/>
<path d="M261.519 423.481C265.172 423.481 268.133 421.967 268.133 420.1C268.133 418.233 265.172 416.72 261.519 416.72C257.866 416.72 254.905 418.233 254.905 420.1C254.905 421.967 257.866 423.481 261.519 423.481Z" fill="#E0ECF5"/>
<path d="M297.234 402.61C300.724 402.61 303.554 401.163 303.554 399.377C303.554 397.591 300.724 396.143 297.234 396.143C293.743 396.143 290.914 397.591 290.914 399.377C290.914 401.163 293.743 402.61 297.234 402.61Z" fill="#E0ECF5"/>
<path d="M331.48 383.061C334.808 383.061 337.506 381.679 337.506 379.974C337.506 378.27 334.808 376.888 331.48 376.888C328.152 376.888 325.454 378.27 325.454 379.974C325.454 381.679 328.152 383.061 331.48 383.061Z" fill="#E0ECF5"/>
<path d="M363.668 364.542C366.834 364.542 369.4 363.226 369.4 361.602C369.4 359.979 366.834 358.663 363.668 358.663C360.502 358.663 357.936 359.979 357.936 361.602C357.936 363.226 360.502 364.542 363.668 364.542Z" fill="#E0ECF5"/>
<path d="M108.837 348.73L81.6187 361.453" stroke="#E0ECF5" stroke-width="0.5" stroke-miterlimit="10"/>
<path d="M51.4883 344.257L81.6186 361.453L108.61 348.503" stroke="#E0ECF5" stroke-width="0.5" stroke-miterlimit="10"/>
<path d="M148.346 399.52L107.339 420.831L148.346 399.52Z" stroke="#E0ECF5" stroke-width="0.5" stroke-miterlimit="10"/>
<path d="M222.864 441.997L182.151 465.219L222.864 441.997ZM222.864 441.997L184.503 420.097" stroke="#E0ECF5" stroke-width="0.5" stroke-miterlimit="10"/>
<path d="M261.224 420.097L222.863 441.997" stroke="#E0ECF5" stroke-width="0.5" stroke-miterlimit="10"/>
<path d="M331.626 379.973L297.38 399.521L338.387 420.833L297.38 399.521" stroke="#E0ECF5" stroke-width="0.5" stroke-miterlimit="10"/>
<path d="M363.962 361.453L405.557 380.854L363.962 361.453ZM363.962 361.453L331.627 379.972" stroke="#E0ECF5" stroke-width="0.5" stroke-miterlimit="10"/>
<path d="M81.6183 361.454L51.488 344.257L30.7642 353.517" stroke="#E0ECF5" stroke-width="0.5" stroke-miterlimit="10"/>
<path d="M114.099 379.973L72.7988 400.256L114.099 379.973Z" stroke="#E0ECF5" stroke-width="0.5" stroke-miterlimit="10"/>
<path d="M184.503 420.097L222.864 441.997L261.226 420.097" stroke="#E0ECF5" stroke-width="0.5" stroke-miterlimit="10"/>
<path d="M297.38 399.521L331.626 379.973" stroke="#E0ECF5" stroke-width="0.5" stroke-miterlimit="10"/>
<path d="M331.626 379.972L363.961 361.453L336.797 348.73" stroke="#E0ECF5" stroke-width="0.5" stroke-miterlimit="10"/>
<path d="M337.708 348.73L363.962 361.453" stroke="#E0ECF5" stroke-width="0.5" stroke-miterlimit="10"/>
<path d="M20.4024 296.084L223.5 416.686L426.598 296.084L446 49.9939L223.5 1.55762L1 49.9939L20.4024 296.084Z" stroke="#E0ECF5" stroke-width="2" stroke-miterlimit="10" stroke-linejoin="round"/>
<path d="M17.4541 258.116L223.483 174.643" stroke="#E0ECF5" stroke-miterlimit="10"/>
<path d="M14.248 219.032L223.487 141.702" stroke="#E0ECF5" stroke-miterlimit="10"/>
<path d="M11.1719 178.691L223.482 107.921" stroke="#E0ECF5" stroke-miterlimit="10"/>
<path d="M7.82666 137.095L223.487 73.4443" stroke="#E0ECF5" stroke-miterlimit="10"/>
<path d="M4.47363 94.2427L223.484 37.9896" stroke="#E0ECF5" stroke-miterlimit="10"/>
<path d="M192.635 8.25818L194.869 219.312" stroke="#E0ECF5" stroke-miterlimit="10"/>
<path d="M159.55 15.5171L164.436 232.713" stroke="#E0ECF5" stroke-miterlimit="10"/>
<path d="M124.238 23.1934L132.055 246.949" stroke="#E0ECF5" stroke-miterlimit="10"/>
<path d="M86.2676 31.4293L97.2949 262.305" stroke="#E0ECF5" stroke-miterlimit="10"/>
<path d="M45.2358 40.3633L60.1715 278.637" stroke="#E0ECF5" stroke-miterlimit="10"/>
<path d="M429.652 258.116L223.483 174.643" stroke="#E0ECF5" stroke-miterlimit="10"/>
<path d="M432.723 219.032L223.483 141.702" stroke="#E0ECF5" stroke-miterlimit="10"/>
<path d="M435.793 178.691L223.483 107.921" stroke="#E0ECF5" stroke-miterlimit="10"/>
<path d="M439.144 137.095L223.483 73.4443" stroke="#E0ECF5" stroke-miterlimit="10"/>
<path d="M442.493 94.2427L223.483 37.9896" stroke="#E0ECF5" stroke-miterlimit="10"/>
<path d="M254.332 8.25818L252.099 219.312" stroke="#E0ECF5" stroke-miterlimit="10"/>
<path d="M287.416 15.5171L282.531 232.713" stroke="#E0ECF5" stroke-miterlimit="10"/>
<path d="M322.729 23.1934L314.913 246.949" stroke="#E0ECF5" stroke-miterlimit="10"/>
<path d="M360.838 31.4293L349.671 262.305" stroke="#E0ECF5" stroke-miterlimit="10"/>
<path d="M401.737 40.3633L386.802 278.637" stroke="#E0ECF5" stroke-miterlimit="10"/>
<path d="M60.1665 278.636L262.147 393.655" stroke="#E0ECF5" stroke-miterlimit="10"/>
<path d="M97.2979 262.305L298.72 372.019" stroke="#E0ECF5" stroke-miterlimit="10"/>
<path d="M132.056 246.95L333.199 351.5" stroke="#E0ECF5" stroke-miterlimit="10"/>
<path d="M164.438 232.712L366 332.097" stroke="#E0ECF5" stroke-miterlimit="10"/>
<path d="M194.871 219.313L397.131 313.673" stroke="#E0ECF5" stroke-miterlimit="10"/>
<path d="M386.799 278.636L184.818 393.655" stroke="#E0ECF5" stroke-miterlimit="10"/>
<path d="M349.672 262.305L148.389 372.019" stroke="#E0ECF5" stroke-miterlimit="10"/>
<path d="M314.914 246.95L113.771 351.5" stroke="#E0ECF5" stroke-miterlimit="10"/>
<path d="M282.526 232.712L80.9639 332.097" stroke="#E0ECF5" stroke-miterlimit="10"/>
<path d="M252.098 219.313L49.9771 313.673" stroke="#E0ECF5" stroke-miterlimit="10"/>
<path d="M223.484 206.889L426.581 296.084" stroke="#E0ECF5" stroke-width="2" stroke-miterlimit="10" stroke-linejoin="round"/>
<path d="M223.481 1.55811V206.749L20.3838 296.084" stroke="#E0ECF5" stroke-width="2" stroke-miterlimit="10" stroke-linejoin="round"/>
<g style="mix-blend-mode:multiply">
<circle cx="220" cy="198" r="56" fill="#FAFF00"/>
</g>
<circle cx="77.04" cy="97.7188" r="2" fill="#8CF1FF"/>
<circle cx="337.322" cy="173.835" r="2" fill="#161470"/>
<circle cx="146.81" cy="194.035" r="2" fill="#8CF1FF"/>
<circle cx="239.208" cy="81.8379" r="2" fill="#8CF1FF"/>
<circle cx="293" cy="312" r="2" fill="#030080"/>
<circle cx="306.98" cy="266.021" r="2" fill="#030080"/>
<circle cx="227" cy="309" r="2" fill="#1C17FF"/>
<circle cx="272.888" cy="285.354" r="2" fill="#030080"/>
<circle cx="294" cy="343" r="2" fill="#1C17FF"/>
<circle cx="192.98" cy="334.021" r="2" fill="#1C17FF"/>
<circle cx="245.806" cy="286.433" r="2" fill="#030080"/>
<circle cx="309.164" cy="291.833" r="2" fill="#030080"/>
<circle cx="278.804" cy="96.3584" r="2" fill="#8CF1FF"/>
<circle cx="421.98" cy="71.0205" r="2" fill="black"/>
<circle cx="403.98" cy="174.021" r="2" fill="#97ABBF"/>
<circle cx="209.126" cy="101.638" r="2" fill="#8CF1FF"/>
<circle cx="181.968" cy="202.275" r="2" fill="#1C17FF"/>
<circle cx="232.98" cy="197.021" r="2" fill="#1C17FF"/>
<circle cx="190.37" cy="73.918" r="2" fill="#1C17FF"/>
<circle cx="260.603" cy="200.635" r="2" fill="#1C17FF"/>
<circle cx="250.006" cy="180.356" r="2" fill="#1C17FF"/>
<circle cx="231.98" cy="247.021" r="2" fill="#1C17FF"/>
<circle cx="59.6035" cy="183.517" r="2" fill="#161470"/>
<circle cx="48" cy="151.838" r="2" fill="#161470"/>
<circle cx="95.5186" cy="201.996" r="2" fill="#161470"/>
<circle cx="56.9805" cy="236.021" r="2" fill="#161470"/>
<circle cx="91.9805" cy="237.021" r="2" fill="#161470"/>
<circle cx="122.089" cy="69.3594" r="2" fill="#1C17FF"/>
<circle cx="141" cy="118" r="2" fill="black"/>
<circle cx="161.885" cy="181.035" r="2" fill="black"/>
<circle cx="347.446" cy="234.954" r="2" fill="#97ABBF"/>
<circle cx="354.32" cy="267.434" r="2" fill="#97ABBF"/>
<circle cx="401.562" cy="249.593" r="2" fill="#97ABBF"/>
<circle cx="342.446" cy="200.635" r="2" fill="#97ABBF"/>
<circle cx="124.45" cy="165.717" r="2" fill="black"/>
<circle cx="139.98" cy="327.021" r="2" fill="#1C17FF"/>
<circle cx="338.481" cy="84.4785" r="2" fill="black"/>
<circle cx="348.602" cy="48.8398" r="2" fill="black"/>
<circle cx="334" cy="117" r="2" fill="#161470"/>
<circle cx="55.6387" cy="104.318" r="2" fill="#8CF1FF"/>
<circle cx="363.766" cy="126.68" r="2" fill="#161470"/>
<circle cx="363.406" cy="59.3994" r="2" fill="black"/>
<circle cx="153.407" cy="234.674" r="7" fill="#8CF1FF"/>
<circle cx="179.051" cy="271.794" r="7" fill="#8CF1FF"/>
<circle cx="316.121" cy="147.316" r="7" fill="#161470"/>
<circle cx="86.9805" cy="66.0205" r="7" fill="#8CF1FF"/>
<circle cx="34" cy="71" r="7" fill="#8CF1FF"/>
<circle cx="48" cy="120" r="7" fill="#8CF1FF"/>
<circle cx="109" cy="283" r="7" fill="#8CF1FF"/>
<circle cx="406.98" cy="134.021" r="7" fill="#8CF1FF"/>
<circle cx="241.848" cy="127.757" r="7" fill="#8CF1FF"/>
<circle cx="207.529" cy="135.677" r="7" fill="#8CF1FF"/>
<circle cx="261.645" cy="326.552" r="7" fill="#030080"/>
<circle cx="265.603" cy="65.7188" r="7" fill="#8CF1FF"/>
<circle cx="228.646" cy="51.1992" r="7" fill="#1C17FF"/>
<circle cx="196.968" cy="38" r="7" fill="#1C17FF"/>
<circle cx="153.407" cy="70.998" r="7" fill="#1C17FF"/>
<circle cx="335.885" cy="290.473" r="7" fill="#030080"/>
<circle cx="180" cy="107" r="7" fill="black"/>
<circle cx="168" cy="150" r="7" fill="black"/>
<circle cx="315.767" cy="60.4395" r="7" fill="black"/>
<circle cx="284.728" cy="146.877" r="5" fill="black"/>
<circle cx="313.963" cy="207.715" r="5" fill="#97ABBF"/>
<circle cx="349.404" cy="153.477" r="5" fill="#161470"/>
<circle cx="121.047" cy="247.193" r="5" fill="#8CF1FF"/>
<circle cx="133.012" cy="214.915" r="5" fill="#8CF1FF"/>
<circle cx="221.98" cy="346.021" r="5" fill="#1C17FF"/>
<circle cx="187.98" cy="301.021" r="5" fill="#8CF1FF"/>
<circle cx="214.765" cy="178.556" r="5" fill="#1C17FF"/>
<circle cx="212.98" cy="233.021" r="5" fill="#1C17FF"/>
<circle cx="247.367" cy="219.634" r="5" fill="#1C17FF"/>
<circle cx="153" cy="306" r="5" fill="#1C17FF"/>
<circle cx="85" cy="176" r="5" fill="#161470"/>
<circle cx="44.124" cy="224.075" r="5" fill="#161470"/>
<circle cx="132" cy="142" r="5" fill="black"/>
<circle r="5" transform="matrix(0.965926 -0.258818 0.25882 0.965926 88.1237 147.814)" fill="#161470"/>
<circle cx="309.802" cy="239.273" r="5" fill="#97ABBF"/>
<circle cx="369.202" cy="183.835" r="5" fill="#161470"/>
<circle cx="382.361" cy="224.313" r="5" fill="#97ABBF"/>
<circle cx="169" cy="341" r="5" fill="#1C17FF"/>
<circle cx="280.762" cy="42.5996" r="5" fill="black"/>
<circle cx="380.959" cy="86.0391" r="5" fill="black"/>
</svg>
